Coordinates
version=1
nRows=5
nColumns=40
inDegrees=yes

Units are S.I. units (second, meters, Newtons, ...)
Angles are in degrees.

endheader
time	pelvis_tilt	pelvis_list	pelvis_rotation	pelvis_tx	pelvis_ty	pelvis_tz	hip_flexion_r	hip_adduction_r	hip_rotation_r	knee_angle_r	knee_angle_r_beta	ankle_angle_r	subtalar_angle_r	mtp_angle_r	hip_flexion_l	hip_adduction_l	hip_rotation_l	knee_angle_l	knee_angle_l_beta	ankle_angle_l	subtalar_angle_l	mtp_angle_l	lumbar_extension	lumbar_bending	lumbar_rotation	arm_flex_r	arm_add_r	arm_rot_r	elbow_flex_r	pro_sup_r	wrist_flex_r	wrist_dev_r	arm_flex_l	arm_add_l	arm_rot_l	elbow_flex_l	pro_sup_l	wrist_flex_l	wrist_dev_l
     51.41500000	     -5.74031598	     -5.95077522	     -4.98559722	      0.94411241	      0.92424296	      0.47727499	     20.20521353	      4.33463168	     -9.65063088	     17.11620398	     17.11620398	      4.35573329	      0.10866765	     -3.71334231	     10.52910800	    -11.06238778	     -5.76927489	     40.27934956	     40.27934956	     14.40902634	    -15.56476323	     -4.25975233	     -9.88219011	      7.57361410	     -0.22568650	     -0.49770114	    -11.45423584	     -9.33747782	     32.33553397	     46.14294359	      0.00000000	      0.00000000	     14.10700728	    -14.78626225	    -11.01285974	     65.40394406	     46.80971504	      0.00000000	      0.00000000
     51.42800000	     -5.67596322	     -6.02362347	     -4.71571832	      0.94427318	      0.92455489	      0.47944327	     19.70048562	      4.40536532	    -10.09696977	     17.22767861	     17.22767861	      4.96132196	      0.54984617	     -3.45437269	     12.29992222	    -11.65334964	     -5.14543671	     43.87297754	     43.87297754	     10.89461254	    -17.00021026	     -8.41654236	     -9.82760105	      7.72673802	      0.31113720	     -0.12000737	    -12.03702155	     -6.91787129	     36.12926965	     45.83286645	      0.00000000	      0.00000000	     14.84117297	    -13.63948723	    -10.68884297	     60.55150478	     46.76876961	      0.00000000	      0.00000000
     51.44100000	     -5.54206462	     -6.13235914	     -4.49490835	      0.94429667	      0.92479869	      0.48165366	     19.15372719	      4.51942492	    -10.51359359	     17.39389729	     17.39389729	      5.50348536	      0.96269031	     -3.50066048	     14.24353114	    -12.16990535	     -4.25658020	     47.90939932	     47.90939932	      9.11343880	    -17.47523097	     -7.89540843	     -9.96496028	      7.83926416	      0.47932836	      1.25020791	    -12.44571639	     -5.22871929	     38.78143331	     45.64552299	      0.00000000	      0.00000000	     14.27714781	    -13.22166954	     -9.80604589	     58.58687419	     46.71625924	      0.00000000	      0.00000000
     51.45400000	     -5.43194010	     -6.21688523	     -4.29381911	      0.94419845	      0.92495127	      0.48381265	     18.65456097	      4.61389921	    -10.89331104	     17.57972932	     17.57972932	      5.95926074	      1.32977286	     -3.66442013	     16.23591155	    -12.60304485	     -3.30948958	     51.77651275	     51.77651275	      7.29517552	    -17.73969850	     -7.15109915	    -10.07154278	      7.89015415	      0.33409244	      3.28358922	    -12.46652553	     -4.90172648	     40.22142620	     45.58796874	      0.00000000	      0.00000000	     13.43909483	    -12.78856076	     -9.48802253	     56.79003249	     46.67196625	      0.00000000	      0.00000000
     51.46700000	     -5.34854584	     -6.23954878	     -4.14315969	      0.94394825	      0.92505598	      0.48583015	     18.21591143	      4.61184317	    -11.36899929	     17.82326436	     17.82326436	      6.57293738	      1.97382976	     -3.53050148	     18.30870485	    -12.82090226	     -2.25700016	     55.53440612	     55.53440612	      6.34531018	    -17.64601746	     -4.03119853	    -10.10372014	      7.87449227	      0.81723318	      4.64090901	    -13.02712489	     -3.43747558	     42.60286403	     45.43959654	      0.00000000	      0.00000000	     13.47504223	    -11.94171208	     -9.04860184	     53.48883221	     46.62340150	      0.00000000	      0.00000000
